<?xml version="1.0" encoding="UTF-8" standalone="no"?>
<!-- Created with Inkscape (http://www.inkscape.org/) -->

<svg
   xmlns:dc="http://purl.org/dc/elements/1.1/"
   xmlns:cc="http://creativecommons.org/ns#"
   xmlns:rdf="http://www.w3.org/1999/02/22-rdf-syntax-ns#"
   xmlns:svg="http://www.w3.org/2000/svg"
   xmlns="http://www.w3.org/2000/svg"
   xmlns:sodipodi="http://sodipodi.sourceforge.net/DTD/sodipodi-0.dtd"
   xmlns:inkscape="http://www.inkscape.org/namespaces/inkscape"
   width="9.3466234mm"
   height="5.6181641mm"
   viewBox="0 0 9.3466234 5.6181641"
   version="1.1"
   id="svg10031"
   inkscape:version="0.92.3 (unknown)"
   sodipodi:docname="Highway_CH_number.svg">
  <defs
     id="defs10025" />
  <sodipodi:namedview
     id="base"
     pagecolor="#ffffff"
     bordercolor="#666666"
     borderopacity="1.0"
     inkscape:pageopacity="0.0"
     inkscape:pageshadow="2"
     inkscape:zoom="3.959798"
     inkscape:cx="37.054264"
     inkscape:cy="-1.9584446"
     inkscape:document-units="mm"
     inkscape:current-layer="layer1"
     showgrid="false"
     fit-margin-top="0"
     fit-margin-left="0"
     fit-margin-right="0"
     fit-margin-bottom="0"
     inkscape:window-width="1855"
     inkscape:window-height="1056"
     inkscape:window-x="65"
     inkscape:window-y="24"
     inkscape:window-maximized="1" />
  <metadata
     id="metadata10028">
    <rdf:RDF>
      <cc:Work
         rdf:about="">
        <dc:format>image/svg+xml</dc:format>
        <dc:type
           rdf:resource="http://purl.org/dc/dcmitype/StillImage" />
        <dc:title></dc:title>
      </cc:Work>
    </rdf:RDF>
  </metadata>
  <g
     inkscape:label="Layer 1"
     inkscape:groupmode="layer"
     id="layer1"
     transform="translate(-40.683831,-77.232585)">
    <path
       style="display:inline;fill:#ffffff;stroke:#000000;stroke-width:0.32649583;stroke-miterlimit:10;stroke-dasharray:none"
       inkscape:connector-curvature="0"
       id="_107671584-5"
       stroke-miterlimit="10"
       d="m 41.299197,77.395833 h 8.115954 c 0.249597,0 0.452056,0.198319 0.452056,0.442851 v 4.406027 c 0,0.244471 -0.202459,0.44279 -0.452056,0.44279 h -8.115954 c -0.24966,0 -0.452118,-0.198319 -0.452118,-0.442852 v -4.405965 c 0,-0.244532 0.202458,-0.442851 0.452118,-0.442851 z" />
    <path
       style="display:inline;fill:#d40000;stroke-width:0.05297415"
       inkscape:connector-curvature="0"
       id="_107671488-1"
       d="m 41.885162,80.035488 z m 0,0 z m 0,0 z m -0.192349,0.0092 v -1.463943 c 0,-0.05138 0.03851,-0.0899 0.11559,-0.115537 l 3.390027,-0.535463 c 0,-0.0026 0.02569,-0.0039 0.07708,-0.0039 0.05139,0 0.07708,0.0013 0.07708,0.0039 l 3.390028,0.535463 c 0.07702,0.02564 0.11559,0.06415 0.11559,0.115537 v 2.927828 c 0,0.05144 -0.03856,0.0899 -0.11559,0.11559 l -3.390028,0.535462 c 0,0.0025 -0.02569,0.0038 -0.07708,0.0038 -0.05138,0 -0.07708,-0.0013 -0.07708,-0.0038 l -3.39008,-0.535462 c -0.07708,-0.02564 -0.11559,-0.06415 -0.11559,-0.11559" />
    <path
       style="display:inline;fill:#ffffff;stroke-width:0.05297415"
       inkscape:connector-curvature="0"
       d="m 46.063763,79.027602 c -0.155426,-0.0819 -0.330559,-0.1229 -0.525503,-0.1229 -0.138422,0 -0.258514,0.02966 -0.360225,0.089 -0.10171,0.05933 -0.18721,0.138474 -0.256394,0.237323 -0.06929,0.09896 -0.120782,0.213328 -0.154685,0.343273 -0.0339,0.129999 -0.05234,0.265613 -0.05509,0.406842 l 0.0085,-0.0042 c 0.09885,-0.09885 0.200613,-0.168776 0.305131,-0.209778 0.104465,-0.0409 0.218889,-0.06145 0.343272,-0.06145 0.144037,0 0.271175,0.02405 0.381361,0.07205 0.110186,0.04805 0.202679,0.113736 0.277585,0.197064 0.0748,0.08338 0.132011,0.181542 0.171636,0.294536 0.03952,0.113047 0.05928,0.235894 0.05928,0.3687 0,0.152566 -0.024,0.289663 -0.07199,0.411133 -0.0481,0.121471 -0.114427,0.223923 -0.199185,0.307198 -0.08476,0.08338 -0.185092,0.147639 -0.300893,0.192878 -0.115908,0.04513 -0.241615,0.06775 -0.377229,0.06775 -0.206229,0 -0.374369,-0.04233 -0.504314,-0.127138 -0.129999,-0.08476 -0.230968,-0.194944 -0.303012,-0.330452 -0.07205,-0.135667 -0.121523,-0.287544 -0.148328,-0.45563 -0.02686,-0.168088 -0.04026,-0.336916 -0.04026,-0.506433 0,-0.200613 0.01833,-0.399055 0.05509,-0.595483 0.03666,-0.196322 0.100968,-0.371455 0.192826,-0.525504 0.09175,-0.153943 0.214704,-0.278962 0.3687,-0.375057 0.153943,-0.09604 0.348199,-0.14409 0.582715,-0.14409 0.05091,0 0.105949,0.0029 0.165333,0.0085 0.05928,0.0057 0.117973,0.01271 0.175874,0.02119 0.05785,0.0085 0.110822,0.01843 0.158922,0.02966 0.048,0.01134 0.08476,0.02267 0.110134,0.0339 z m -0.283888,1.411284 c -0.01981,-0.07061 -0.05017,-0.134872 -0.09117,-0.192826 -0.041,-0.05795 -0.09255,-0.104517 -0.154684,-0.139904 -0.06219,-0.03528 -0.135614,-0.05297 -0.220373,-0.05297 -0.08757,0 -0.165968,0.01557 -0.235152,0.04662 -0.06929,0.03115 -0.127138,0.07353 -0.173755,0.127138 -0.04662,0.05372 -0.08195,0.116543 -0.105949,0.188588 -0.02405,0.07205 -0.03602,0.149069 -0.03602,0.230967 0,0.07061 0.01059,0.142712 0.03178,0.216134 0.02119,0.07353 0.05361,0.140541 0.09747,0.201302 0.04376,0.06081 0.09816,0.110186 0.163161,0.148381 0.06495,0.03809 0.141229,0.05721 0.228848,0.05721 0.08751,0 0.164538,-0.01769 0.230967,-0.05297 0.06632,-0.03539 0.121417,-0.08195 0.165227,-0.139905 0.04376,-0.0579 0.07628,-0.124331 0.09747,-0.199183 0.02119,-0.07485 0.03184,-0.151877 0.03184,-0.230967 0,-0.06781 -0.01,-0.136991 -0.02967,-0.207606 z"
       id="path7393-0" />
  </g>
</svg>
