<?xml version="1.0" encoding="UTF-8" standalone="no"?>
<!-- Created with Inkscape (http://www.inkscape.org/) -->

<svg
   xmlns:dc="http://purl.org/dc/elements/1.1/"
   xmlns:cc="http://creativecommons.org/ns#"
   xmlns:rdf="http://www.w3.org/1999/02/22-rdf-syntax-ns#"
   xmlns:svg="http://www.w3.org/2000/svg"
   xmlns="http://www.w3.org/2000/svg"
   xmlns:sodipodi="http://sodipodi.sourceforge.net/DTD/sodipodi-0.dtd"
   xmlns:inkscape="http://www.inkscape.org/namespaces/inkscape"
   width="16.623375mm"
   height="16.451128mm"
   viewBox="0 0 16.623375 16.451128"
   version="1.1"
   id="svg8702"
   inkscape:version="0.92.3 (unknown)"
   sodipodi:docname="shop_pickup.svg">
  <defs
     id="defs8696" />
  <sodipodi:namedview
     id="base"
     pagecolor="#ffffff"
     bordercolor="#666666"
     borderopacity="1.0"
     inkscape:pageopacity="0.0"
     inkscape:pageshadow="2"
     inkscape:zoom="5.6"
     inkscape:cx="0.99994247"
     inkscape:cy="-0.085220824"
     inkscape:document-units="mm"
     inkscape:current-layer="layer1"
     showgrid="false"
     fit-margin-top="0"
     fit-margin-left="0"
     fit-margin-right="0"
     fit-margin-bottom="0"
     inkscape:window-width="1855"
     inkscape:window-height="1056"
     inkscape:window-x="65"
     inkscape:window-y="24"
     inkscape:window-maximized="1" />
  <metadata
     id="metadata8699">
    <rdf:RDF>
      <cc:Work
         rdf:about="">
        <dc:format>image/svg+xml</dc:format>
        <dc:type
           rdf:resource="http://purl.org/dc/dcmitype/StillImage" />
        <dc:title></dc:title>
      </cc:Work>
    </rdf:RDF>
  </metadata>
  <g
     inkscape:label="Layer 1"
     inkscape:groupmode="layer"
     id="layer1"
     transform="translate(-67.28355,-65.012531)">
    <g
       style="display:inline"
       transform="matrix(0.36742825,0,0,0.36363712,53.437661,-2.0596977)"
       id="g2636">
      <path
         inkscape:connector-curvature="0"
         id="path2638"
         style="fill:#fcffff;fill-opacity:1;fill-rule:nonzero;stroke:#000006;stroke-width:0.35150799;stroke-linecap:round;stroke-linejoin:round;stroke-miterlimit:4;stroke-dasharray:none;stroke-opacity:1"
         d="m 82.75,207.07 c 0,12.394 -10.047,22.443 -22.445,22.443 -12.395,0 -22.446,-10.049 -22.446,-22.443 0,-12.397 10.051,-22.446 22.446,-22.446 12.398,0 22.445,10.049 22.445,22.446 z" />
    </g>
    <path
       inkscape:connector-curvature="0"
       id="path2640"
       style="display:inline;fill:#5a5b5a;fill-opacity:1;fill-rule:nonzero;stroke:none;stroke-width:0.36742827"
       d="m 78.569021,74.457075 v -3.654076 h -7.2523 v 4.093517 c 2.88358,1.801135 3.296941,1.779455 3.296941,1.779455 l 1.95619,-0.744775 c 1.240069,-1.089425 0.753589,-0.73486 1.999169,-1.474121 z" />
    <path
       inkscape:connector-curvature="0"
       id="path2642"
       style="display:inline;fill:#a9a9a9;fill-opacity:1;fill-rule:nonzero;stroke:none;stroke-width:0.36742827"
       d="m 75.602412,70.802999 h -4.285691 v 4.093517 c 0.103251,0.06467 0.20246,0.126029 0.300191,0.186653 l 4.32426,-4.28017 z" />
    <path
       inkscape:connector-curvature="0"
       id="path2644"
       style="display:inline;fill:#2687c0;fill-opacity:1;fill-rule:nonzero;stroke:none;stroke-width:0.36742827"
       d="m 79.259421,73.413944 h 1.317601 v 4.567132 h -1.317601 z" />
    <path
       inkscape:connector-curvature="0"
       id="path2646"
       style="display:inline;fill:#d2d2d2;fill-opacity:1;fill-rule:nonzero;stroke:none;stroke-width:0.36742827"
       d="m 77.580271,68.845339 0.98875,1.95766 h -7.2523 l 0.823781,-1.95766 z" />
    <path
       inkscape:connector-curvature="0"
       id="path2648"
       style="display:inline;fill:#a9a9a9;fill-opacity:1;fill-rule:nonzero;stroke:none;stroke-width:0.36742827"
       d="m 78.135821,74.718314 -3.031279,-0.604052 c -0.29578,-0.116477 -0.63161,0.02572 -0.749191,0.320029 -0.117939,0.292841 0.0272,0.624261 0.322981,0.740736 l 1.6446,0.848024 -1.679151,0.65292 c 0,0 -0.447889,0.02611 -3.695959,-2.030775 -0.26822,-0.169386 -0.62573,-0.09186 -0.79805,0.173792 -0.17049,0.265287 -0.0919,0.618384 0.176729,0.787768 0.164981,0.104719 3.65849,3.027243 4.647231,3.027243 0.98912,0 4.285689,-1.30474 4.285689,-1.30474 v -3.263863 z" />
    <path
       inkscape:connector-curvature="0"
       id="path2650"
       style="display:inline;fill:#a9a9a9;fill-opacity:1;fill-rule:nonzero;stroke:none;stroke-width:0.36742827"
       d="m 74.973732,72.435113 -0.988741,0.978831 v -2.610945 h 1.977861 v 2.610945 z" />
    <path
       inkscape:connector-curvature="0"
       id="path2652"
       style="display:inline;fill:#fcffff;fill-opacity:1;fill-rule:nonzero;stroke:none;stroke-width:0.36742827"
       d="m 75.632542,68.845339 0.33031,1.95766 h -1.977861 l 0.328481,-1.95766 z" />
    <path
       inkscape:connector-curvature="0"
       id="path2654"
       style="display:inline;fill:#d2d2d2;fill-opacity:1;fill-rule:nonzero;stroke:none;stroke-width:0.36742827"
       d="m 78.342321,74.597796 -0.2065,0.120518 -3.031279,-0.604052 c -0.29578,-0.116477 -0.63161,0.02572 -0.749191,0.318558 -0.117939,0.294312 0.0272,0.625732 0.322981,0.742207 l 1.6446,0.848024 -1.679151,0.65292 c 0,0 -0.447889,0.02611 -3.695959,-2.030775 -0.26822,-0.169386 -0.62573,-0.09186 -0.796581,0.173792 -0.171959,0.265287 -0.0933,0.618384 0.17526,0.787768 0.1422,0.09039 2.742861,2.262253 4.09903,2.869247 z" />
    <path
       inkscape:connector-curvature="0"
       id="path2656"
       style="display:inline;fill:#d2d2d2;fill-opacity:1;fill-rule:nonzero;stroke:none;stroke-width:0.36742827"
       d="m 73.984991,70.802999 v 1.966473 l 1.977861,-1.957654 v -0.0088 z" />
    <path
       inkscape:connector-curvature="0"
       id="path2658"
       style="display:inline;fill:#ffffff;fill-opacity:1;fill-rule:nonzero;stroke:none;stroke-width:0.36742827"
       d="m 74.996882,74.290625 c -0.16497,-0.05879 -0.34869,0.01029 -0.4365,0.160936 -0.0514,0.09039 -0.0617,0.198046 -0.0272,0.296884 0.0345,0.09774 0.11059,0.176731 0.209429,0.213841 l 0.0878,0.03454 0.28696,-0.664311 z" />
  </g>
</svg>
