<?xml version="1.0" encoding="UTF-8" standalone="no"?>
<!-- Created with Inkscape (http://www.inkscape.org/) -->

<svg
   xmlns:dc="http://purl.org/dc/elements/1.1/"
   xmlns:cc="http://creativecommons.org/ns#"
   xmlns:rdf="http://www.w3.org/1999/02/22-rdf-syntax-ns#"
   xmlns:svg="http://www.w3.org/2000/svg"
   xmlns="http://www.w3.org/2000/svg"
   xmlns:sodipodi="http://sodipodi.sourceforge.net/DTD/sodipodi-0.dtd"
   xmlns:inkscape="http://www.inkscape.org/namespaces/inkscape"
   width="16.623375mm"
   height="16.451128mm"
   viewBox="0 0 16.623375 16.451128"
   version="1.1"
   id="svg6844"
   inkscape:version="0.92.3 (unknown)"
   sodipodi:docname="shop_buy_online.svg">
  <defs
     id="defs6838" />
  <sodipodi:namedview
     id="base"
     pagecolor="#ffffff"
     bordercolor="#666666"
     borderopacity="1.0"
     inkscape:pageopacity="0.0"
     inkscape:pageshadow="2"
     inkscape:zoom="0.35"
     inkscape:cx="-194.30003"
     inkscape:cy="-417.4827"
     inkscape:document-units="mm"
     inkscape:current-layer="layer1"
     showgrid="false"
     fit-margin-top="0"
     fit-margin-left="0"
     fit-margin-right="0"
     fit-margin-bottom="0"
     inkscape:window-width="1855"
     inkscape:window-height="1056"
     inkscape:window-x="65"
     inkscape:window-y="24"
     inkscape:window-maximized="1" />
  <metadata
     id="metadata6841">
    <rdf:RDF>
      <cc:Work
         rdf:about="">
        <dc:format>image/svg+xml</dc:format>
        <dc:type
           rdf:resource="http://purl.org/dc/dcmitype/StillImage" />
        <dc:title></dc:title>
      </cc:Work>
    </rdf:RDF>
  </metadata>
  <g
     inkscape:label="Layer 1"
     inkscape:groupmode="layer"
     id="layer1"
     transform="translate(-27.974026,-21.923241)">
    <g
       style="display:inline"
       transform="matrix(0.36742825,0,0,0.36363712,14.128137,-12.50092)"
       id="g2682">
      <path
         inkscape:connector-curvature="0"
         id="path2684"
         style="fill:#fcffff;fill-opacity:1;fill-rule:nonzero;stroke:#000006;stroke-width:0.35150799;stroke-linecap:round;stroke-linejoin:round;stroke-miterlimit:4;stroke-dasharray:none;stroke-opacity:1"
         d="m 82.75,117.288 c 0,12.394 -10.047,22.443 -22.445,22.443 -12.395,0 -22.446,-10.049 -22.446,-22.443 0,-12.397 10.051,-22.446 22.446,-22.446 12.398,0 22.445,10.049 22.445,22.446 z" />
    </g>
    <path
       inkscape:connector-curvature="0"
       id="path2686"
       style="display:inline;fill:#fcffff;fill-opacity:1;fill-rule:nonzero;stroke:none;stroke-width:0.36742827"
       d="m 34.097127,25.061478 h 6.26062 v 10.513226 h -6.26062 z" />
    <path
       inkscape:connector-curvature="0"
       id="path2688"
       style="display:inline;fill:#2687c0;fill-opacity:1;fill-rule:nonzero;stroke:none;stroke-width:0.36742827"
       d="m 34.097127,25.061478 c 0,0 0,1.277182 0,1.904382 h 0.65292 v -0.70583 c 0,-0.03013 0.0242,-0.05475 0.0544,-0.05475 h 4.84564 c 0.0301,0 0.0544,0.02462 0.0544,0.05475 v 7.168893 c 0,0.03013 -0.0242,0.05475 -0.0544,0.05475 h -4.84565 c -0.0301,0 -0.0544,-0.02463 -0.0544,-0.05475 v -1.381898 h -0.65292 v 3.527679 c 1.70083,0 6.26062,0 6.26062,0 0,-3.351315 0,-7.035518 0,-10.514694 z m 3.67833,0.858312 h -1.10633 v -0.526892 h 1.10633 z m -0.5482,9.217307 c -0.34282,0 -0.61986,-0.275572 -0.61986,-0.614341 0,-0.338769 0.27704,-0.61287 0.61986,-0.61287 0.3417,0 0.62021,0.274101 0.62021,0.61287 0,0.338769 -0.27851,0.614341 -0.62021,0.614341 z" />
    <g
       style="display:inline"
       transform="matrix(0.36742825,0,0,0.36363712,14.128137,-12.50092)"
       id="g2690">
      <path
         inkscape:connector-curvature="0"
         id="path2692"
         style="fill:#5a5b5a;fill-opacity:1;fill-rule:nonzero;stroke:#5a5b5a;stroke-width:0.49721101;stroke-linecap:butt;stroke-linejoin:miter;stroke-miterlimit:4;stroke-dasharray:none;stroke-opacity:1"
         d="M 61.629,120.114 H 49.195 l -0.168,-1.046 0.5,-0.059 c 0,0 8.371,-0.979 12.555,-1.468 0,0 0.797,-4.527 1.168,-6.623 H 47.723 c 0,0 -0.02,-0.154 -0.055,-0.379 l -0.047,-0.288 h -0.004 l -0.078,-0.482 c -0.019,-0.13 -0.043,-0.272 -0.043,-0.272 l -2.906,-0.817 -0.485,-0.134 v 0.923 l 2.547,0.588 0.043,0.281 v 0.004 c 0.039,0.181 0.067,0.394 0.098,0.588 l 1.328,8.245 0.008,-0.004 0.293,1.867 h 13.047 z m -7.867,-2.53 -2.504,0.292 -0.145,-1.665 2.649,-0.213 z m 0,-1.898 -2.676,0.217 -0.184,-2.116 2.86,-0.071 z m 7.59,0.679 c -0.036,0.201 -0.059,0.339 -0.059,0.339 l -2.172,0.253 0.168,-1.409 2.238,-0.182 z m -1.622,-4.52 2.415,0.008 c 0,0 -0.043,0.253 -0.094,0.533 l -0.145,0.817 -2.344,0.059 z m 2.122,1.666 -0.27,1.543 -2.254,0.182 0.195,-1.666 z m -4.793,-1.662 2.359,-0.004 -0.168,1.425 -2.262,0.056 z m -0.086,1.784 2.242,-0.055 -0.203,1.686 -2.125,0.169 z m -0.098,2.112 2.102,-0.17 -0.168,1.417 -2.004,0.237 z m -2.805,-3.896 2.68,-0.004 -0.07,1.488 -2.61,0.068 z m 0,1.859 2.594,-0.067 -0.086,1.82 -2.508,0.201 z m 0,2.262 2.492,-0.201 -0.07,1.496 -2.422,0.284 z m -0.308,-4.121 v 1.559 l -2.887,0.071 -0.141,-1.63 z m -5.887,0.004 c 0.813,0 1.68,0 2.551,-0.004 l 0.14,1.638 -2.41,0.06 z m 0.328,2.001 2.391,-0.059 0.183,2.132 -2.207,0.181 z m 0.68,4.299 -0.262,-1.741 2.184,-0.178 0.148,1.678 -1.613,0.189 z" />
    </g>
    <g
       style="display:inline"
       transform="matrix(0.36742825,0,0,0.36363712,14.128137,-12.50092)"
       id="g2694">
      <path
         inkscape:connector-curvature="0"
         id="path2696"
         style="fill:#5a5b5a;fill-opacity:1;fill-rule:nonzero;stroke:#5a5b5a;stroke-width:0.49721101;stroke-linecap:butt;stroke-linejoin:miter;stroke-miterlimit:4;stroke-dasharray:none;stroke-opacity:1"
         d="m 51.695,122.806 c 0,0.636 -0.511,1.153 -1.148,1.153 -0.637,0 -1.149,-0.517 -1.149,-1.153 0,-0.631 0.512,-1.148 1.149,-1.148 0.637,0 1.148,0.517 1.148,1.148 z" />
    </g>
    <g
       style="display:inline"
       transform="matrix(0.36742825,0,0,0.36363712,14.128137,-12.50092)"
       id="g2698">
      <path
         inkscape:connector-curvature="0"
         id="path2700"
         style="fill:#5a5b5a;fill-opacity:1;fill-rule:nonzero;stroke:#5a5b5a;stroke-width:0.49721101;stroke-linecap:butt;stroke-linejoin:miter;stroke-miterlimit:4;stroke-dasharray:none;stroke-opacity:1"
         d="m 60.809,122.806 c 0,0.636 -0.516,1.153 -1.153,1.153 -0.636,0 -1.148,-0.517 -1.148,-1.153 0,-0.631 0.512,-1.148 1.148,-1.148 0.637,0 1.153,0.517 1.153,1.148 z" />
    </g>
  </g>
</svg>
