<?xml version="1.0" encoding="UTF-8" standalone="no"?>
<!-- Created with Inkscape (http://www.inkscape.org/) -->

<svg
   xmlns:dc="http://purl.org/dc/elements/1.1/"
   xmlns:cc="http://creativecommons.org/ns#"
   xmlns:rdf="http://www.w3.org/1999/02/22-rdf-syntax-ns#"
   xmlns:svg="http://www.w3.org/2000/svg"
   xmlns="http://www.w3.org/2000/svg"
   xmlns:sodipodi="http://sodipodi.sourceforge.net/DTD/sodipodi-0.dtd"
   xmlns:inkscape="http://www.inkscape.org/namespaces/inkscape"
   width="16.622707mm"
   height="16.453323mm"
   viewBox="0 0 16.622707 16.453323"
   version="1.1"
   id="svg7458"
   inkscape:version="0.92.3 (unknown)"
   sodipodi:docname="shop_shipping.svg">
  <defs
     id="defs7452" />
  <sodipodi:namedview
     id="base"
     pagecolor="#ffffff"
     bordercolor="#666666"
     borderopacity="1.0"
     inkscape:pageopacity="0.0"
     inkscape:pageshadow="2"
     inkscape:zoom="0.35"
     inkscape:cx="-294.3013"
     inkscape:cy="-268.90711"
     inkscape:document-units="mm"
     inkscape:current-layer="layer1"
     showgrid="false"
     fit-margin-top="0"
     fit-margin-left="0"
     fit-margin-right="0"
     fit-margin-bottom="0"
     inkscape:window-width="1855"
     inkscape:window-height="1056"
     inkscape:window-x="65"
     inkscape:window-y="24"
     inkscape:window-maximized="1" />
  <metadata
     id="metadata7455">
    <rdf:RDF>
      <cc:Work
         rdf:about="">
        <dc:format>image/svg+xml</dc:format>
        <dc:type
           rdf:resource="http://purl.org/dc/dcmitype/StillImage" />
        <dc:title></dc:title>
      </cc:Work>
    </rdf:RDF>
  </metadata>
  <g
     inkscape:label="Layer 1"
     inkscape:groupmode="layer"
     id="layer1"
     transform="translate(-54.432694,-61.231671)">
    <g
       style="display:inline"
       transform="matrix(0.36742825,0,0,0.36742825,40.586471,10.484629)"
       id="g2660">
      <path
         inkscape:connector-curvature="0"
         id="path2662"
         style="fill:#fcffff;fill-opacity:1;fill-rule:nonzero;stroke:#000006;stroke-width:0.34968999;stroke-linecap:round;stroke-linejoin:round;stroke-miterlimit:4;stroke-dasharray:none;stroke-opacity:1"
         d="m 82.75,160.504 c 0,12.269 -10.047,22.215 -22.445,22.215 -12.395,0 -22.446,-9.946 -22.446,-22.215 0,-12.27 10.051,-22.215 22.446,-22.215 12.398,0 22.445,9.945 22.445,22.215 z" />
    </g>
    <path
       inkscape:connector-curvature="0"
       id="path2664"
       style="display:inline;fill:#a9a9a9;fill-opacity:1;fill-rule:nonzero;stroke:none;stroke-width:0.36742827"
       d="m 60.358521,71.430526 v 0.945761 h 4.883121 c 0.006,-0.0158 0.01,-0.03013 0.0169,-0.04446 0.006,-0.01431 0.0132,-0.03013 0.0217,-0.04446 0.007,-0.01323 0.0158,-0.02755 0.0257,-0.04042 0.009,-0.01431 0.0187,-0.0272 0.0287,-0.03858 0.0118,-0.01289 0.0217,-0.02463 0.0345,-0.03601 0.0114,-0.0114 0.0231,-0.02278 0.036,-0.03306 0.0129,-0.0099 0.0272,-0.01873 0.0401,-0.0272 0.0143,-0.0085 0.0287,-0.01725 0.043,-0.02424 0.0143,-0.0073 0.029,-0.01431 0.0448,-0.02021 0.0158,-0.0059 0.0312,-0.0114 0.047,-0.0158 0.0158,-0.0044 0.0316,-0.0073 0.0474,-0.0099 0.0158,-0.0028 0.0331,-0.0044 0.0489,-0.0059 0.0114,-0.0013 0.0231,-0.0013 0.0345,-0.0013 0.0173,0 0.0331,0.0013 0.0489,0.0028 0.0173,0.0013 0.0331,0.0028 0.0489,0.007 0.0158,0.0028 0.0312,0.0073 0.047,0.01175 0.0158,0.004 0.0316,0.0099 0.0474,0.01725 0.0143,0.0055 0.0287,0.01289 0.0434,0.01982 0.0143,0.0088 0.0287,0.01725 0.043,0.02611 0.0129,0.0099 0.0257,0.01839 0.0386,0.03013 0.0129,0.0099 0.0246,0.0213 0.036,0.0327 0.0114,0.01175 0.0213,0.02315 0.0316,0.03601 0.0114,0.01289 0.0198,0.02572 0.0286,0.04005 0.01,0.01323 0.0173,0.02755 0.0242,0.04189 0.009,0.01431 0.0143,0.03013 0.0202,0.04446 0.004,0.0099 0.009,0.01982 0.0114,0.03161 h 1.78277 v -0.945764 z" />
    <path
       inkscape:connector-curvature="0"
       id="path2666"
       style="display:inline;fill:#a9a9a9;fill-opacity:1;fill-rule:evenodd;stroke:none;stroke-width:0.36742827"
       d="m 59.682821,71.180675 c -0.0562,0.0028 -0.11206,0.0055 -0.16644,0.0114 -0.0632,0.0059 -0.12346,0.01432 -0.18372,0.02424 -0.0591,0.0103 -0.11647,0.02166 -0.17232,0.03601 -0.0562,0.01432 -0.10913,0.03161 -0.16093,0.05034 -0.0515,0.02021 -0.10031,0.04152 -0.14771,0.06614 -0.0474,0.02424 -0.0919,0.04997 -0.13485,0.0801 -0.043,0.03012 -0.0834,0.06173 -0.12051,0.09774 -0.0375,0.03601 -0.0735,0.07459 -0.10509,0.116105 -0.0327,0.04336 -0.0628,0.08782 -0.0904,0.136318 -0.0257,0.04887 -0.05,0.102142 -0.0717,0.156522 -0.0217,0.05622 -0.04,0.116476 -0.0558,0.179303 -0.0143,0.0632 -0.0276,0.130807 -0.036,0.202456 -0.01,0.07202 -0.0158,0.146603 -0.0187,0.226703 -0.003,0.079 -0.001,0.163874 0.003,0.252788 l 0.66321,-0.404902 c 10e-4,-0.01839 0.0988,-0.0055 0.10324,-0.02278 0.003,-0.01873 0.008,-0.03747 0.0129,-0.05585 0.006,-0.01725 0.0129,-0.03601 0.0202,-0.05328 0.007,-0.01728 0.0158,-0.03454 0.0242,-0.05034 0.0103,-0.01725 0.0202,-0.03306 0.0301,-0.04887 0.0118,-0.01543 0.0231,-0.03013 0.0345,-0.04446 0.0129,-0.01431 0.0257,-0.02865 0.0389,-0.04152 0.0143,-0.01289 0.0286,-0.02572 0.043,-0.03711 0.0158,-0.01175 0.0316,-0.02315 0.0474,-0.03306 0.0158,-0.01029 0.0316,-0.01873 0.0485,-0.02755 0.0172,-0.0085 0.0345,-0.01691 0.0533,-0.02278 0.0172,-0.0073 0.036,-0.01289 0.0533,-0.01873 0.0184,-0.0044 0.0371,-0.0085 0.0559,-0.0114 0.0187,-0.0044 0.0371,-0.0059 0.0573,-0.0073 0.0129,-0.0011 0.0257,-0.0011 0.0401,-0.0011 0.0187,0 0.0375,0 0.0577,0.0024 0.0184,0.0013 0.0371,0.0044 0.0559,0.0088 0.0187,0.0028 0.0375,0.0085 0.0558,0.01289 0.0173,0.0059 0.036,0.01288 0.0533,0.02021 0.0172,0.007 0.0345,0.0158 0.0518,0.02424 0.0158,0.0085 0.0327,0.01873 0.0485,0.03013 0.0158,0.0099 0.0301,0.02167 0.0445,0.03454 0.0147,0.0114 0.029,0.02424 0.0419,0.03711 0.0143,0.01431 0.0257,0.02865 0.0386,0.04336 0.0114,0.01431 0.0231,0.03013 0.033,0.04593 0.01,0.0158 0.0202,0.03122 0.0287,0.0485 0.009,0.01725 0.0158,0.03454 0.0231,0.05181 0.007,0.01728 0.0129,0.03601 0.0172,0.05328 0.005,0.01839 0.01,0.03711 0.0129,0.05585 0.003,0.01873 0.005,0.03711 0.007,0.05585 10e-4,0.01289 10e-4,0.0272 10e-4,0.04042 0,0.01839 -10e-4,0.03711 -0.003,0.05585 0,0 0.38175,0.157996 0.73485,0.259774 v -0.637155 l -0.49236,-0.749187 -0.23368,-0.24985 z" />
    <path
       inkscape:connector-curvature="0"
       id="path2668"
       style="display:inline;fill:#a9a9a9;fill-opacity:1;fill-rule:evenodd;stroke:none;stroke-width:0.36742827"
       d="m 58.446791,67.931141 c -0.39755,0 -0.66871,0.106186 -0.80356,0.365957 -0.31158,0.605892 -0.85978,1.90034 -0.85978,1.90034 v 2.638134 h 1.43811 c -0.0676,-1.416804 0.7536,-1.685024 1.90328,-1.636157 v -3.05296 l -0.21385,-0.215314 z m 1.09531,0.687458 c 0.0445,0 0.1003,0.02021 0.1003,0.05732 l -0.003,1.068116 c 0,0.05732 -0.0544,0.116106 -0.14623,0.136313 -0.5798,0.123458 -1.06224,0.134846 -1.56157,0.170854 -0.14918,0.0099 -0.22671,-0.0948 -0.19951,-0.243971 0.0716,-0.404907 0.2109,-0.737796 0.36301,-1.076564 0.0276,-0.06173 0.0933,-0.106187 0.14367,-0.106187 z" />
    <path
       inkscape:connector-curvature="0"
       id="path2670"
       style="display:inline;fill:#2687c0;fill-opacity:1;fill-rule:nonzero;stroke:none;stroke-width:0.36742827"
       d="m 60.850881,65.518606 h 7.37281 v 5.646272 h -7.37281 z" />
    <path
       inkscape:connector-curvature="0"
       id="path2672"
       style="display:inline;fill:#5a5b5a;fill-opacity:1;fill-rule:nonzero;stroke:none;stroke-width:0.36742827"
       d="m 60.124841,68.127715 h 0.23405 v 3.061413 h -0.23405 z" />
    <path
       inkscape:connector-curvature="0"
       id="path2674"
       style="display:inline;fill:#a9a9a9;fill-opacity:1;fill-rule:nonzero;stroke:none;stroke-width:0.36742827"
       d="m 60.850881,71.164878 h 7.37281 v 0.265648 h -7.37281 z" />
    <path
       inkscape:connector-curvature="0"
       id="path2676"
       style="display:inline;fill:#a9a9a9;fill-opacity:1;fill-rule:nonzero;stroke:none;stroke-width:0.36742827"
       d="m 59.718461,72.796626 c 0,0.113535 -0.0919,0.203922 -0.20649,0.203922 -0.11354,0 -0.20686,-0.09039 -0.20686,-0.203922 0,-0.113168 0.0933,-0.205029 0.20686,-0.205029 0.11464,0 0.20649,0.09186 0.20649,0.205029 z" />
    <path
       inkscape:connector-curvature="0"
       id="path2678"
       style="display:inline;fill:#5a5b5a;fill-opacity:1;fill-rule:nonzero;stroke:none;stroke-width:0.36742827"
       d="m 65.725181,71.472047 c -0.73926,0 -1.33781,0.592659 -1.33781,1.324579 0,0.731914 0.59855,1.324946 1.33781,1.324946 0.73927,0 1.338911,-0.593032 1.338911,-1.324946 0,-0.73192 -0.599641,-1.324579 -1.338911,-1.324579 z m 0,0.706195 c 0.34575,0 0.62573,0.277042 0.62573,0.618384 0,0.341706 -0.27998,0.618746 -0.62573,0.618746 -0.34465,0 -0.624259,-0.27704 -0.624259,-0.618746 0,-0.341342 0.279609,-0.618384 0.624259,-0.618384 z" />
    <path
       inkscape:connector-curvature="0"
       id="path2680"
       style="display:inline;fill:#a9a9a9;fill-opacity:1;fill-rule:nonzero;stroke:none;stroke-width:0.36742827"
       d="m 65.931681,72.796626 c 0,0.113535 -0.0919,0.203922 -0.2065,0.203922 -0.11354,0 -0.20686,-0.09039 -0.20686,-0.203922 0,-0.113168 0.0933,-0.205029 0.20686,-0.205029 0.114641,0 0.2065,0.09186 0.2065,0.205029 z" />
    <path
       inkscape:connector-curvature="0"
       id="path2766"
       style="display:inline;fill:#5a5b5a;fill-opacity:1;fill-rule:nonzero;stroke:none;stroke-width:0.36742827"
       d="m 59.511971,71.472047 c -0.73927,0 -1.33781,0.592659 -1.33781,1.324579 0,0.730813 0.59854,1.324946 1.33781,1.324946 0.73926,0 1.33891,-0.594133 1.33891,-1.324946 0,-0.73192 -0.59965,-1.324579 -1.33891,-1.324579 z m 0,0.706195 c 0.34575,0 0.62573,0.277042 0.62573,0.618384 0,0.341706 -0.27998,0.618746 -0.62573,0.618746 -0.34465,0 -0.62426,-0.27704 -0.62426,-0.618746 0,-0.341342 0.27961,-0.618384 0.62426,-0.618384 z" />
  </g>
</svg>
